ffmpeg version 4.4.2-0ubuntu0.22.04.1 Copyright (c) 2000-2021 the FFmpeg developers
  built with gcc 11 (Ubuntu 11.2.0-19ubuntu1)
  configuration: --prefix=/usr --extra-version=0ubuntu0.22.04.1 --toolchain=hardened --libdir=/usr/lib/x86_64-linux-gnu --incdir=/usr/include/x86_64-linux-gnu --arch=amd64 --enable-gpl --disable-stripping --enable-gnutls --enable-ladspa --enable-libaom --enable-libass --enable-libbluray --enable-libbs2b --enable-libcaca --enable-libcdio --enable-libcodec2 --enable-libdav1d --enable-libflite --enable-libfontconfig --enable-libfreetype --enable-libfribidi --enable-libgme --enable-libgsm --enable-libjack --enable-libmp3lame --enable-libmysofa --enable-libopenjpeg --enable-libopenmpt --enable-libopus --enable-libpulse --enable-librabbitmq --enable-librubberband --enable-libshine --enable-libsnappy --enable-libsoxr --enable-libspeex --enable-libsrt --enable-libssh --enable-libtheora --enable-libtwolame --enable-libvidstab --enable-libvorbis --enable-libvpx --enable-libwebp --enable-libx265 --enable-libxml2 --enable-libxvid --enable-libzimg --enable-libzmq --enable-libzvbi --enable-lv2 --enable-omx --enable-openal --enable-opencl --enable-opengl --enable-sdl2 --enable-pocketsphinx --enable-librsvg --enable-libmfx --enable-libdc1394 --enable-libdrm --enable-libiec61883 --enable-chromaprint --enable-frei0r --enable-libx264 --enable-shared
  libavutil      56. 70.100 / 56. 70.100
  libavcodec     58.134.100 / 58.134.100
  libavformat    58. 76.100 / 58. 76.100
  libavdevice    58. 13.100 / 58. 13.100
  libavfilter     7.110.100 /  7.110.100
  libswscale      5.  9.100 /  5.  9.100
  libswresample   3.  9.100 /  3.  9.100
  libpostproc    55.  9.100 / 55.  9.100
Input #0, image2, from 'frames/frame_%04d.png':
  Duration: 00:01:10.00, start: 0.000000, bitrate: N/A
  Stream #0:0: Video: png, rgba(pc), 1920x1080 [SAR 3937:3937 DAR 16:9], 30 fps, 30 tbr, 30 tbn, 30 tbc
Stream mapping:
  Stream #0:0 -> #0:0 (png (native) -> h264 (libx264))
[libx264 @ 0x5c7d8fb54640] using SAR=1/1
[libx264 @ 0x5c7d8fb54640] using cpu capabilities: MMX2 SSE2Fast SSSE3 SSE4.2 AVX FMA3 BMI2 AVX2
[libx264 @ 0x5c7d8fb54640] profile High, level 4.0, 4:2:0, 8-bit
[libx264 @ 0x5c7d8fb54640] 264 - core 163 r3060 5db6aa6 - H.264/MPEG-4 AVC codec - Copyleft 2003-2021 - http://www.videolan.org/x264.html - options: cabac=1 ref=3 deblock=1:0:0 analyse=0x3:0x113 me=hex subme=7 psy=1 psy_rd=1.00:0.00 mixed_ref=1 me_range=16 chroma_me=1 trellis=1 8x8dct=1 cqm=0 deadzone=21,11 fast_pskip=1 chroma_qp_offset=-2 threads=3 lookahead_threads=1 sliced_threads=0 nr=0 decimate=1 interlaced=0 bluray_compat=0 constrained_intra=0 bframes=3 b_pyramid=2 b_adapt=1 b_bias=0 direct=1 weightb=1 open_gop=0 weightp=2 keyint=250 keyint_min=25 scenecut=40 intra_refresh=0 rc_lookahead=40 rc=crf mbtree=1 crf=23.0 qcomp=0.60 qpmin=0 qpmax=69 qpstep=4 ip_ratio=1.40 aq=1:1.00
Output #0, mp4, to 'raw_video.mp4':
  Metadata:
    encoder         : Lavf58.76.100
  Stream #0:0: Video: h264 (avc1 / 0x31637661), yuv420p(tv, progressive), 1920x1080 [SAR 1:1 DAR 16:9], q=2-31, 30 fps, 15360 tbn
    Metadata:
      encoder         : Lavc58.134.100 libx264
    Side data:
      cpb: bitrate max/min/avg: 0/0/0 buffer size: 0 vbv_delay: N/A
frame=    1 fps=0.0 q=0.0 size=       0kB time=00:00:00.00 bitrate=N/A speed=   0x    frame=   21 fps=0.0 q=0.0 size=       0kB time=00:00:00.00 bitrate=N/A speed=   0x    frame=   46 fps= 43 q=0.0 size=       0kB time=00:00:00.00 bitrate=N/A speed=   0x    frame=   58 fps= 36 q=29.0 size=       0kB time=00:00:00.26 bitrate=   1.4kbits/s speed=0.168x    frame=   77 fps= 36 q=29.0 size=       0kB time=00:00:00.90 bitrate=   0.4kbits/s speed=0.426x    frame=   96 fps= 37 q=29.0 size=       0kB time=00:00:01.53 bitrate=   0.3kbits/s speed=0.584x    frame=  115 fps= 37 q=29.0 size=       0kB time=00:00:02.16 bitrate=   0.2kbits/s speed=0.689x    frame=  133 fps= 36 q=29.0 size=       0kB time=00:00:02.76 bitrate=   0.1kbits/s speed=0.759x    frame=  153 fps= 37 q=29.0 size=       0kB time=00:00:03.43 bitrate=   0.1kbits/s speed=0.821x    frame=  171 fps= 36 q=29.0 size=       0kB time=00:00:04.03 bitrate=   0.1kbits/s speed=0.859x    frame=  191 fps= 37 q=29.0 size=       0kB time=00:00:04.70 bitrate=   0.1kbits/s speed=0.904x    frame=  209 fps= 37 q=29.0 size=       0kB time=00:00:05.30 bitrate=   0.1kbits/s speed=0.926x    frame=  228 fps= 37 q=29.0 size=       0kB time=00:00:05.93 bitrate=   0.1kbits/s speed=0.951x    frame=  248 fps= 37 q=29.0 size=       0kB time=00:00:06.60 bitrate=   0.1kbits/s speed=0.979x    frame=  266 fps= 37 q=29.0 size=       0kB time=00:00:07.20 bitrate=   0.1kbits/s speed=0.992x    frame=  284 fps= 37 q=29.0 size=       0kB time=00:00:07.80 bitrate=   0.0kbits/s speed=   1x    frame=  302 fps= 36 q=29.0 size=       0kB time=00:00:08.40 bitrate=   0.0kbits/s speed=1.01x    frame=  322 fps= 37 q=29.0 size=       0kB time=00:00:09.06 bitrate=   0.0kbits/s speed=1.03x    frame=  341 fps= 37 q=29.0 size=       0kB time=00:00:09.70 bitrate=   0.0kbits/s speed=1.04x    frame=  359 fps= 36 q=29.0 size=       0kB time=00:00:10.30 bitrate=   0.0kbits/s speed=1.05x    frame=  378 fps= 36 q=29.0 size=       0kB time=00:00:10.93 bitrate=   0.0kbits/s speed=1.05x    frame=  395 fps= 36 q=29.0 size=       0kB time=00:00:11.50 bitrate=   0.0kbits/s speed=1.06x    frame=  408 fps= 36 q=29.0 size=       0kB time=00:00:11.93 bitrate=   0.0kbits/s speed=1.05x    frame=  421 fps= 35 q=29.0 size=       0kB time=00:00:12.36 bitrate=   0.0kbits/s speed=1.04x    frame=  439 fps= 35 q=29.0 size=       0kB time=00:00:12.96 bitrate=   0.0kbits/s speed=1.04x    frame=  450 fps= 35 q=29.0 size=       0kB time=00:00:13.33 bitrate=   0.0kbits/s speed=1.03x    frame=  463 fps= 34 q=29.0 size=       0kB time=00:00:13.76 bitrate=   0.0kbits/s speed=1.02x    frame=  481 fps= 34 q=29.0 size=       0kB time=00:00:14.36 bitrate=   0.0kbits/s speed=1.03x    frame=  496 fps= 34 q=29.0 size=       0kB time=00:00:14.86 bitrate=   0.0kbits/s speed=1.03x    frame=  513 fps= 34 q=29.0 size=     256kB time=00:00:15.43 bitrate= 135.9kbits/s speed=1.03x    frame=  530 fps= 34 q=29.0 size=     256kB time=00:00:16.00 bitrate= 131.1kbits/s speed=1.03x    frame=  548 fps= 34 q=29.0 size=     256kB time=00:00:16.60 bitrate= 126.4kbits/s speed=1.04x    frame=  566 fps= 34 q=29.0 size=     256kB time=00:00:17.20 bitrate= 121.9kbits/s speed=1.04x    frame=  584 fps= 34 q=29.0 size=     256kB time=00:00:17.80 bitrate= 117.8kbits/s speed=1.05x    frame=  598 fps= 34 q=29.0 size=     256kB time=00:00:18.26 bitrate= 114.8kbits/s speed=1.04x    frame=  616 fps= 34 q=29.0 size=     256kB time=00:00:18.86 bitrate= 111.2kbits/s speed=1.04x    frame=  633 fps= 34 q=29.0 size=     256kB time=00:00:19.43 bitrate= 107.9kbits/s speed=1.04x    frame=  651 fps= 34 q=29.0 size=     256kB time=00:00:20.03 bitrate= 104.7kbits/s speed=1.05x    frame=  667 fps= 34 q=29.0 size=     256kB time=00:00:20.56 bitrate= 102.0kbits/s speed=1.05x    frame=  684 fps= 34 q=29.0 size=     512kB time=00:00:21.13 bitrate= 198.5kbits/s speed=1.05x    frame=  701 fps= 34 q=29.0 size=     512kB time=00:00:21.70 bitrate= 193.3kbits/s speed=1.05x    frame=  717 fps= 34 q=29.0 size=     512kB time=00:00:22.23 bitrate= 188.7kbits/s speed=1.05x    frame=  735 fps= 34 q=29.0 size=     512kB time=00:00:22.83 bitrate= 183.7kbits/s speed=1.05x    frame=  753 fps= 34 q=29.0 size=     512kB time=00:00:23.43 bitrate= 179.0kbits/s speed=1.05x    frame=  772 fps= 34 q=29.0 size=     512kB time=00:00:24.06 bitrate= 174.3kbits/s speed=1.05x    frame=  789 fps= 34 q=29.0 size=     512kB time=00:00:24.63 bitrate= 170.3kbits/s speed=1.05x    frame=  807 fps= 34 q=29.0 size=     512kB time=00:00:25.23 bitrate= 166.2kbits/s speed=1.06x    frame=  824 fps= 34 q=29.0 size=     512kB time=00:00:25.80 bitrate= 162.6kbits/s speed=1.06x    frame=  841 fps= 34 q=29.0 size=     768kB time=00:00:26.36 bitrate= 238.6kbits/s speed=1.06x    frame=  858 fps= 34 q=29.0 size=     768kB time=00:00:26.93 bitrate= 233.6kbits/s speed=1.06x    frame=  874 fps= 34 q=29.0 size=     768kB time=00:00:27.46 bitrate= 229.1kbits/s speed=1.06x    frame=  889 fps= 34 q=29.0 size=     768kB time=00:00:27.96 bitrate= 225.0kbits/s speed=1.06x    frame=  905 fps= 34 q=29.0 size=     768kB time=00:00:28.50 bitrate= 220.8kbits/s speed=1.06x    frame=  920 fps= 33 q=29.0 size=     768kB time=00:00:29.00 bitrate= 217.0kbits/s speed=1.06x    frame=  938 fps= 34 q=29.0 size=     768kB time=00:00:29.60 bitrate= 212.6kbits/s speed=1.06x    frame=  953 fps= 33 q=29.0 size=     768kB time=00:00:30.10 bitrate= 209.0kbits/s speed=1.05x    frame=  973 fps= 33 q=29.0 size=     768kB time=00:00:30.76 bitrate= 204.5kbits/s speed=1.06x    frame=  991 fps= 34 q=29.0 size=     768kB time=00:00:31.36 bitrate= 200.6kbits/s speed=1.06x    frame= 1010 fps= 34 q=29.0 size=     768kB time=00:00:32.00 bitrate= 196.6kbits/s speed=1.06x    frame= 1029 fps= 34 q=29.0 size=     768kB time=00:00:32.63 bitrate= 192.8kbits/s speed=1.07x    frame= 1049 fps= 34 q=29.0 size=     768kB time=00:00:33.30 bitrate= 188.9kbits/s speed=1.07x    frame= 1066 fps= 34 q=29.0 size=     768kB time=00:00:33.86 bitrate= 185.8kbits/s speed=1.07x    frame= 1085 fps= 34 q=29.0 size=     768kB time=00:00:34.50 bitrate= 182.4kbits/s speed=1.07x    frame= 1104 fps= 34 q=29.0 size=     768kB time=00:00:35.13 bitrate= 179.1kbits/s speed=1.07x    frame= 1123 fps= 34 q=29.0 size=     768kB time=00:00:35.76 bitrate= 175.9kbits/s speed=1.08x    frame= 1143 fps= 34 q=29.0 size=     768kB time=00:00:36.43 bitrate= 172.7kbits/s speed=1.08x    frame= 1161 fps= 34 q=29.0 size=     768kB time=00:00:37.03 bitrate= 169.9kbits/s speed=1.08x    frame= 1179 fps= 34 q=29.0 size=     768kB time=00:00:37.63 bitrate= 167.2kbits/s speed=1.08x    frame= 1196 fps= 34 q=29.0 size=     768kB time=00:00:38.20 bitrate= 164.7kbits/s speed=1.08x    frame= 1211 fps= 34 q=29.0 size=     768kB time=00:00:38.70 bitrate= 162.6kbits/s speed=1.08x    frame= 1228 fps= 34 q=29.0 size=     768kB time=00:00:39.26 bitrate= 160.2kbits/s speed=1.08x    frame= 1247 fps= 34 q=29.0 size=     768kB time=00:00:39.90 bitrate= 157.7kbits/s speed=1.08x    frame= 1264 fps= 34 q=29.0 size=     768kB time=00:00:40.46 bitrate= 155.5kbits/s speed=1.08x    frame= 1282 fps= 34 q=29.0 size=     768kB time=00:00:41.06 bitrate= 153.2kbits/s speed=1.08x    frame= 1302 fps= 34 q=29.0 size=     768kB time=00:00:41.73 bitrate= 150.8kbits/s speed=1.09x    frame= 1322 fps= 34 q=29.0 size=     768kB time=00:00:42.40 bitrate= 148.4kbits/s speed=1.09x    frame= 1342 fps= 34 q=29.0 size=     768kB time=00:00:43.06 bitrate= 146.1kbits/s speed=1.09x    frame= 1362 fps= 34 q=29.0 size=     768kB time=00:00:43.73 bitrate= 143.9kbits/s speed=1.09x    frame= 1381 fps= 34 q=29.0 size=    1024kB time=00:00:44.36 bitrate= 189.1kbits/s speed= 1.1x    frame= 1400 fps= 34 q=29.0 size=    1024kB time=00:00:45.00 bitrate= 186.4kbits/s speed= 1.1x    frame= 1419 fps= 34 q=29.0 size=    1024kB time=00:00:45.63 bitrate= 183.8kbits/s speed= 1.1x    frame= 1436 fps= 34 q=29.0 size=    1024kB time=00:00:46.20 bitrate= 181.6kbits/s speed= 1.1x    frame= 1453 fps= 34 q=29.0 size=    1024kB time=00:00:46.76 bitrate= 179.4kbits/s speed= 1.1x    frame= 1473 fps= 34 q=29.0 size=    1024kB time=00:00:47.43 bitrate= 176.9kbits/s speed= 1.1x    frame= 1493 fps= 34 q=29.0 size=    1024kB time=00:00:48.10 bitrate= 174.4kbits/s speed= 1.1x    frame= 1512 fps= 34 q=29.0 size=    1024kB time=00:00:48.73 bitrate= 172.1kbits/s speed=1.11x    frame= 1532 fps= 34 q=29.0 size=    1024kB time=00:00:49.40 bitrate= 169.8kbits/s speed=1.11x    frame= 1550 fps= 34 q=29.0 size=    1024kB time=00:00:50.00 bitrate= 167.8kbits/s speed=1.11x    frame= 1568 fps= 34 q=29.0 size=    1024kB time=00:00:50.60 bitrate= 165.8kbits/s speed=1.11x    frame= 1586 fps= 34 q=29.0 size=    1024kB time=00:00:51.20 bitrate= 163.8kbits/s speed=1.11x    frame= 1605 fps= 34 q=29.0 size=    1024kB time=00:00:51.83 bitrate= 161.8kbits/s speed=1.11x    frame= 1624 fps= 34 q=29.0 size=    1024kB time=00:00:52.46 bitrate= 159.9kbits/s speed=1.11x    frame= 1643 fps= 34 q=29.0 size=    1024kB time=00:00:53.10 bitrate= 158.0kbits/s speed=1.11x    frame= 1662 fps= 35 q=29.0 size=    1024kB time=00:00:53.73 bitrate= 156.1kbits/s speed=1.12x    frame= 1681 fps= 35 q=29.0 size=    1024kB time=00:00:54.36 bitrate= 154.3kbits/s speed=1.12x    frame= 1700 fps= 35 q=29.0 size=    1024kB time=00:00:55.00 bitrate= 152.5kbits/s speed=1.12x    frame= 1719 fps= 35 q=29.0 size=    1024kB time=00:00:55.63 bitrate= 150.8kbits/s speed=1.12x    frame= 1740 fps= 35 q=29.0 size=    1024kB time=00:00:56.33 bitrate= 148.9kbits/s speed=1.12x    frame= 1760 fps= 35 q=29.0 size=    1024kB time=00:00:57.00 bitrate= 147.2kbits/s speed=1.12x    frame= 1780 fps= 35 q=29.0 size=    1024kB time=00:00:57.66 bitrate= 145.5kbits/s speed=1.13x    frame= 1798 fps= 35 q=29.0 size=    1024kB time=00:00:58.26 bitrate= 144.0kbits/s speed=1.13x    frame= 1816 fps= 35 q=29.0 size=    1280kB time=00:00:58.86 bitrate= 178.1kbits/s speed=1.13x    frame= 1834 fps= 35 q=29.0 size=    1280kB time=00:00:59.46 bitrate= 176.3kbits/s speed=1.13x    frame= 1853 fps= 35 q=29.0 size=    1280kB time=00:01:00.10 bitrate= 174.5kbits/s speed=1.13x    frame= 1873 fps= 35 q=29.0 size=    1280kB time=00:01:00.76 bitrate= 172.6kbits/s speed=1.13x    frame= 1893 fps= 35 q=29.0 size=    1280kB time=00:01:01.43 bitrate= 170.7kbits/s speed=1.13x    frame= 1912 fps= 35 q=29.0 size=    1280kB time=00:01:02.06 bitrate= 168.9kbits/s speed=1.13x    frame= 1931 fps= 35 q=29.0 size=    1280kB time=00:01:02.70 bitrate= 167.2kbits/s speed=1.13x    frame= 1950 fps= 35 q=29.0 size=    1280kB time=00:01:03.33 bitrate= 165.6kbits/s speed=1.13x    frame= 1969 fps= 35 q=29.0 size=    1280kB time=00:01:03.96 bitrate= 163.9kbits/s speed=1.13x    frame= 1989 fps= 35 q=29.0 size=    1280kB time=00:01:04.63 bitrate= 162.2kbits/s speed=1.14x    frame= 2009 fps= 35 q=29.0 size=    1280kB time=00:01:05.30 bitrate= 160.6kbits/s speed=1.14x    frame= 2029 fps= 35 q=29.0 size=    1280kB time=00:01:05.96 bitrate= 159.0kbits/s speed=1.14x    frame= 2047 fps= 35 q=26.0 size=    1280kB time=00:01:06.56 bitrate= 157.5kbits/s speed=1.14x    frame= 2065 fps= 35 q=29.0 size=    1280kB time=00:01:07.16 bitrate= 156.1kbits/s speed=1.14x    frame= 2085 fps= 35 q=29.0 size=    1280kB time=00:01:07.83 bitrate= 154.6kbits/s speed=1.14x    [mp4 @ 0x5c7d8fb3a380] Starting second pass: moving the moov atom to the beginning of the file
frame= 2100 fps= 35 q=-1.0 Lsize=    1507kB time=00:01:09.90 bitrate= 176.6kbits/s speed=1.16x    
video:1481kB audio:0kB subtitle:0kB other streams:0kB global headers:0kB muxing overhead: 1.714260%
[libx264 @ 0x5c7d8fb54640] frame I:10    Avg QP:12.39  size: 40072
[libx264 @ 0x5c7d8fb54640] frame P:531   Avg QP:16.88  size:  1282
[libx264 @ 0x5c7d8fb54640] frame B:1559  Avg QP:17.86  size:   279
[libx264 @ 0x5c7d8fb54640] consecutive B-frames:  0.8%  0.3%  1.4% 97.5%
[libx264 @ 0x5c7d8fb54640] mb I  I16..4: 65.7% 26.7%  7.6%
[libx264 @ 0x5c7d8fb54640] mb P  I16..4:  0.7%  0.1%  0.0%  P16..4:  1.2%  0.2%  0.1%  0.0%  0.0%    skip:97.7%
[libx264 @ 0x5c7d8fb54640] mb B  I16..4:  0.1%  0.0%  0.0%  B16..8:  1.3%  0.1%  0.0%  direct: 0.0%  skip:98.5%  L0:43.8% L1:55.3% BI: 0.9%
[libx264 @ 0x5c7d8fb54640] 8x8 transform intra:21.6% inter:32.1%
[libx264 @ 0x5c7d8fb54640] coded y,uvDC,uvAC intra: 4.3% 9.4% 6.9% inter: 0.1% 0.2% 0.1%
[libx264 @ 0x5c7d8fb54640] i16 v,h,dc,p: 70% 29%  2%  0%
[libx264 @ 0x5c7d8fb54640] i8 v,h,dc,ddl,ddr,vr,hd,vl,hu: 38%  5% 57%  0%  0%  0%  0%  0%  0%
[libx264 @ 0x5c7d8fb54640] i4 v,h,dc,ddl,ddr,vr,hd,vl,hu: 36% 27% 22%  2%  2%  3%  3%  3%  3%
[libx264 @ 0x5c7d8fb54640] i8c dc,h,v,p: 61% 27% 12%  0%
[libx264 @ 0x5c7d8fb54640] Weighted P-Frames: Y:0.0% UV:0.0%
[libx264 @ 0x5c7d8fb54640] ref P L0: 61.0%  8.5% 18.9% 11.6%
[libx264 @ 0x5c7d8fb54640] ref B L0: 77.0% 19.8%  3.3%
[libx264 @ 0x5c7d8fb54640] ref B L1: 95.0%  5.0%
[libx264 @ 0x5c7d8fb54640] kb/s:173.27
